<svg width="134" height="40" viewBox="0 0 134 40" fill="none" xmlns="http://www.w3.org/2000/svg">
<g clip-path="url(#clip0_646_3304)">
<path d="M123.329 0.00013H10.6769C10.2663 0.00013 9.86061 0.00013 9.45107 0.00213C9.10824 0.00413 8.76815 0.00994 8.42203 0.01483C7.67009 0.0227318 6.91993 0.0818063 6.17806 0.19154C5.43722 0.303663 4.7196 0.515046 4.04945 0.81854C3.38012 1.1246 2.76854 1.5223 2.23688 1.9972C1.70244 2.47077 1.25694 3.01815 0.917509 3.61829C0.577146 4.21724 0.341137 4.85907 0.217633 5.52161C0.0929558 6.18332 0.0258656 6.85265 0.016965 7.52361C0.00657323 7.83021 0.00547583 8.13783 0 8.44447V31.5587C0.00547583 31.8692 0.00657323 32.17 0.016965 32.4806C0.0258683 33.1516 0.0929585 33.8209 0.217633 34.4825C0.340796 35.1455 0.576819 35.7877 0.917509 36.3868C1.25678 36.985 1.70235 37.5302 2.23688 38.0011C2.76652 38.4781 3.3785 38.8761 4.04945 39.1798C4.71959 39.4841 5.43714 39.6968 6.17806 39.8106C6.92006 39.9195 7.67014 39.9786 8.42203 39.9874C8.76815 39.9942 9.10824 39.9981 9.45107 39.9981C9.8606 40.0001 10.2663 40.0001 10.6769 40.0001H123.329C123.732 40.0001 124.14 40.0001 124.543 39.9981C124.884 39.9981 125.234 39.9942 125.575 39.9874C126.326 39.9791 127.074 39.92 127.815 39.8106C128.558 39.696 129.278 39.4834 129.952 39.1798C130.622 38.8759 131.233 38.478 131.763 38.0011C132.296 37.5284 132.742 36.9836 133.086 36.3868C133.424 35.7872 133.658 35.1451 133.779 34.4825C133.904 33.8208 133.973 33.1516 133.987 32.4806C133.991 32.17 133.991 31.8692 133.991 31.5587C134 31.1954 134 30.8341 134 30.4649V9.53626C134 9.17005 134 8.80677 133.991 8.44447C133.991 8.13783 133.991 7.83021 133.987 7.52357C133.973 6.85255 133.904 6.18337 133.779 5.52157C133.657 4.85941 133.424 4.21763 133.086 3.61825C132.395 2.41533 131.298 1.43616 129.952 0.81845C129.278 0.515697 128.558 0.30437 127.815 0.19145C127.075 0.0812328 126.326 0.0221378 125.575 0.01469C125.234 0.00981 124.884 0.00395 124.543 0.002C124.14 0 123.732 0 123.329 0V0.00013Z" fill="#A6A6A6"/>
<path d="M9.45745 39.125C9.11627 39.125 8.78333 39.1211 8.44483 39.1143C7.74359 39.1061 7.04398 39.0516 6.35176 38.9512C5.7063 38.8519 5.08101 38.6673 4.49654 38.4033C3.91743 38.1415 3.38923 37.7983 2.93218 37.3867C2.46851 36.98 2.08249 36.5082 1.78941 35.9902C1.4931 35.4688 1.28803 34.9099 1.18136 34.333C1.06616 33.7131 1.00383 33.0863 0.99491 32.458C0.98781 32.2471 0.978516 31.5449 0.978516 31.5449V8.44434C0.978516 8.44434 0.988415 7.75293 0.994966 7.5498C1.0035 6.92248 1.06547 6.29665 1.18033 5.67773C1.2872 5.09925 1.49242 4.53875 1.78889 4.01563C2.0809 3.49794 2.46478 3.02586 2.92565 2.61768C3.386 2.20562 3.91589 1.8606 4.49599 1.59521C5.07912 1.33209 5.70322 1.14873 6.34738 1.05127C7.04188 0.949836 7.74391 0.894996 8.44758 0.88721L9.458 0.875H124.538L125.561 0.8877C126.258 0.895099 126.954 0.94945 127.642 1.05029C128.293 1.14898 128.923 1.33362 129.513 1.59814C130.675 2.13299 131.621 2.97916 132.217 4.01807C132.509 4.53758 132.711 5.09351 132.817 5.66699C132.933 6.29099 132.998 6.92174 133.011 7.5542C133.014 7.8374 133.014 8.1416 133.014 8.44434C133.023 8.81934 133.023 9.17627 133.023 9.53613V30.4648C133.023 30.8281 133.023 31.1826 133.014 31.54C133.014 31.8652 133.014 32.1631 133.01 32.4697C132.997 33.0909 132.933 33.7104 132.819 34.3232C132.714 34.9043 132.51 35.4675 132.214 35.9932C131.919 36.5056 131.535 36.9733 131.077 37.3789C130.619 37.7927 130.09 38.1379 129.51 38.4014C128.922 38.6674 128.292 38.8527 127.642 38.9512C126.95 39.0522 126.25 39.1067 125.549 39.1143C125.221 39.1211 124.877 39.125 124.544 39.125L123.33 39.127L9.45745 39.125Z" fill="black"/>
<path d="M24.6528 20.3042C24.6635 19.4696 24.8841 18.6512 25.2943 17.9252C25.7044 17.1993 26.2906 16.5893 26.9984 16.1522C26.5488 15.507 25.9556 14.9761 25.266 14.6015C24.5763 14.227 23.8093 14.0191 23.0257 13.9945C21.3542 13.8182 19.7338 14.9993 18.8821 14.9993C18.0138 14.9993 16.7024 14.012 15.2902 14.0412C14.3768 14.0708 13.4866 14.3377 12.7063 14.8157C11.9261 15.2938 11.2824 15.9668 10.838 16.7691C8.91291 20.1175 10.3488 25.0385 12.1929 27.7451C13.1155 29.0705 14.1938 30.5509 15.6047 30.4984C16.9853 30.4409 17.501 29.614 19.1675 29.614C20.8186 29.614 21.3024 30.4984 22.7419 30.4651C24.2234 30.4409 25.1569 29.1338 26.0471 27.7959C26.71 26.8516 27.2201 25.8078 27.5585 24.7034C26.6978 24.3377 25.9633 23.7255 25.4466 22.9432C24.9298 22.1609 24.6538 21.2431 24.6528 20.3042Z" fill="white"/>
<path d="M21.9327 12.2133C22.7405 11.2391 23.1385 9.98689 23.0421 8.72266C21.808 8.85288 20.668 9.44544 19.8493 10.3823C19.4491 10.8399 19.1425 11.3724 18.9471 11.9491C18.7518 12.5259 18.6715 13.1357 18.7109 13.7437C19.3282 13.75 19.9389 13.6156 20.4969 13.3505C21.055 13.0855 21.5459 12.6966 21.9327 12.2133Z" fill="white"/>
<path d="M42.1062 27.1436H37.3947L36.2632 30.5H34.2676L38.7303 18.082H40.8036L45.2663 30.5H43.2367L42.1062 27.1436ZM37.8826 25.5948H41.6173L39.7762 20.1475H39.7247L37.8826 25.5948Z" fill="white"/>
<path d="M54.903 25.9753C54.903 28.7888 53.4041 30.5964 51.1421 30.5964C50.5691 30.6265 49.9993 30.4939 49.4978 30.2138C48.9964 29.9336 48.5836 29.5173 48.3067 29.0124H48.2639V33.4968H46.4141V21.448H48.2046V22.9538H48.2386C48.5282 22.4514 48.948 22.0372 49.4533 21.7553C49.9586 21.4735 50.5305 21.3345 51.1081 21.3532C53.3953 21.3532 54.903 23.1696 54.903 25.9753ZM53.0017 25.9753C53.0017 24.1423 52.0588 22.9372 50.6201 22.9372C49.2068 22.9372 48.2561 24.1677 48.2561 25.9753C48.2561 27.7995 49.2068 29.0212 50.6201 29.0212C52.0588 29.0212 53.0017 27.8249 53.0017 25.9753Z" fill="white"/>
<path d="M64.8229 25.9753C64.8229 28.7888 63.324 30.5964 61.0621 30.5964C60.4891 30.6265 59.9192 30.4939 59.4178 30.2138C58.9163 29.9336 58.5035 29.5173 58.2266 29.0124H58.1838V33.4968H56.334V21.448H58.1245V22.9538H58.1585C58.4481 22.4513 58.8679 22.0372 59.3732 21.7553C59.8785 21.4735 60.4504 21.3345 61.028 21.3532C63.3153 21.3532 64.8229 23.1696 64.8229 25.9753ZM62.9216 25.9753C62.9216 24.1423 61.9787 22.9372 60.5401 22.9372C59.1267 22.9372 58.176 24.1677 58.176 25.9753C58.176 27.7995 59.1267 29.0212 60.5401 29.0212C61.9787 29.0212 62.9216 27.8249 62.9216 25.9753H62.9216Z" fill="white"/>
<path d="M71.378 27.0401C71.515 28.2715 72.7058 29.0801 74.333 29.0801C75.8922 29.0801 77.0139 28.2715 77.0139 27.1611C77.0139 26.1973 76.3374 25.6201 74.7354 25.2246L73.1335 24.8369C70.8638 24.2861 69.81 23.2197 69.81 21.4893C69.81 19.3467 71.6686 17.875 74.3077 17.875C76.9196 17.875 78.7101 19.3467 78.7704 21.4893H76.9031C76.7913 20.25 75.7716 19.502 74.2814 19.502C72.7913 19.502 71.7716 20.2588 71.7716 21.3604C71.7716 22.2383 72.4229 22.7549 74.0161 23.1504L75.3779 23.4863C77.914 24.0888 78.9677 25.1123 78.9677 26.9287C78.9677 29.2519 77.1257 30.707 74.1959 30.707C71.4547 30.707 69.6039 29.2861 69.4844 27.04L71.378 27.0401Z" fill="white"/>
<path d="M82.9599 19.3047V21.4473H84.6736V22.9189H82.9599V27.9102C82.9599 28.6855 83.303 29.0469 84.0564 29.0469C84.2598 29.0433 84.4629 29.029 84.6649 29.0039V30.4668C84.3262 30.5303 83.9819 30.5591 83.6374 30.5527C81.8129 30.5527 81.1013 29.8642 81.1013 28.1084V22.9189H79.791V21.4473H81.1013V19.3047H82.9599Z" fill="white"/>
<path d="M85.666 25.9746C85.666 23.126 87.336 21.3359 89.9401 21.3359C92.553 21.3359 94.2152 23.1259 94.2152 25.9746C94.2152 28.8311 92.5617 30.6133 89.9401 30.6133C87.3194 30.6133 85.666 28.831 85.666 25.9746ZM92.3304 25.9746C92.3304 24.0205 91.439 22.8672 89.9401 22.8672C88.4412 22.8672 87.5508 24.0293 87.5508 25.9746C87.5508 27.9365 88.4412 29.0811 89.9401 29.0811C91.439 29.0811 92.3303 27.9365 92.3303 25.9746H92.3304Z" fill="white"/>
<path d="M95.7402 21.4479H97.5045V22.9889H97.5473C97.6667 22.5076 97.9473 22.0823 98.3421 21.7844C98.7368 21.4865 99.2216 21.3342 99.715 21.3531C99.9282 21.3524 100.141 21.3756 100.349 21.4225V23.1608C100.08 23.0781 99.7989 23.0402 99.5176 23.0485C99.2489 23.0375 98.981 23.0851 98.7323 23.188C98.4836 23.2909 98.26 23.4466 98.0769 23.6445C97.8938 23.8424 97.7554 24.0778 97.6714 24.3344C97.5874 24.5911 97.5596 24.863 97.59 25.1315V30.5016H95.7402L95.7402 21.4479Z" fill="white"/>
<path d="M108.877 27.8418C108.628 29.4853 107.035 30.6133 104.997 30.6133C102.375 30.6133 100.748 28.8486 100.748 26.0176C100.748 23.1777 102.384 21.3359 104.919 21.3359C107.412 21.3359 108.98 23.0566 108.98 25.8018V26.4385H102.615V26.5508C102.586 26.884 102.628 27.2196 102.737 27.5355C102.847 27.8513 103.022 28.1401 103.251 28.3827C103.481 28.6252 103.759 28.816 104.067 28.9423C104.375 29.0686 104.707 29.1275 105.04 29.1152C105.477 29.1564 105.915 29.0547 106.29 28.8252C106.665 28.5958 106.957 28.2509 107.121 27.8418L108.877 27.8418ZM102.624 25.1396H107.13C107.146 24.8401 107.101 24.5402 106.997 24.259C106.893 23.9778 106.732 23.7213 106.524 23.5055C106.317 23.2898 106.067 23.1194 105.791 23.0052C105.514 22.891 105.218 22.8354 104.919 22.8418C104.618 22.84 104.319 22.8981 104.041 23.0129C103.762 23.1276 103.508 23.2967 103.295 23.5103C103.082 23.724 102.913 23.9779 102.797 24.2576C102.682 24.5372 102.623 24.837 102.624 25.1397V25.1396Z" fill="white"/>
<path d="M36.5707 11.2534H37.3649C37.5016 11.2705 37.6404 11.259 37.7724 11.2195C37.9045 11.1801 38.027 11.1136 38.1322 11.0242C38.2374 10.9349 38.323 10.8246 38.3837 10.7003C38.4444 10.576 38.4787 10.4405 38.4847 10.3022C38.4847 9.75193 38.0725 9.39646 37.3736 9.39646C37.2336 9.3768 37.091 9.38553 36.9544 9.42214C36.8177 9.45875 36.6897 9.52249 36.578 9.60961C36.4663 9.69672 36.3731 9.80544 36.3039 9.92935C36.2347 10.0533 36.1909 10.1898 36.1751 10.331H35.3031C35.3182 10.0747 35.3855 9.82428 35.501 9.59527C35.6166 9.36626 35.7778 9.16359 35.9747 8.99989C36.1715 8.83618 36.3998 8.71494 36.6454 8.64372C36.8909 8.5725 37.1484 8.55282 37.4018 8.58591C38.5712 8.58591 39.3946 9.24362 39.3946 10.1904C39.3973 10.5076 39.2917 10.8161 39.0953 11.0645C38.8989 11.3129 38.6237 11.486 38.3156 11.5551V11.6255C38.6809 11.6417 39.0249 11.8027 39.2724 12.073C39.52 12.3434 39.6509 12.7013 39.6366 13.0683C39.6095 13.3322 39.5304 13.588 39.4036 13.8208C39.2769 14.0535 39.1052 14.2585 38.8986 14.4237C38.692 14.5889 38.4547 14.7111 38.2005 14.7829C37.9463 14.8548 37.6804 14.875 37.4184 14.8423C37.1558 14.8782 36.8887 14.8607 36.6329 14.7907C36.3772 14.7208 36.1382 14.5998 35.93 14.4351C35.7218 14.2703 35.5488 14.0651 35.4212 13.8317C35.2936 13.5983 35.2142 13.3415 35.1875 13.0766H36.073C36.1265 13.6474 36.6485 14.0156 37.4184 14.0156C38.1882 14.0156 38.6908 13.6021 38.6908 13.0191C38.6908 12.4277 38.2174 12.0635 37.3902 12.0635H36.5707V11.2534Z" fill="white"/>
<path d="M40.6445 13.4258C40.6445 12.6152 41.2462 12.1479 42.3116 12.0815L43.5257 12.0112V11.6226C43.5257 11.147 43.2137 10.8784 42.6081 10.8784C42.1143 10.8784 41.7731 11.0605 41.6739 11.3789H40.8176C40.908 10.6055 41.6331 10.1094 42.6499 10.1094C43.7736 10.1094 44.4073 10.6714 44.4073 11.6226V14.6992H43.5548V14.0664H43.4849C43.3428 14.2934 43.1433 14.4784 42.9068 14.6027C42.6703 14.7269 42.4052 14.7858 42.1386 14.7734C41.9504 14.7931 41.7602 14.7729 41.5803 14.7142C41.4004 14.6555 41.2347 14.5596 41.0939 14.4326C40.9532 14.3056 40.8405 14.1504 40.7631 13.977C40.6856 13.8036 40.6453 13.6158 40.6445 13.4258ZM43.5257 13.041V12.6645L42.4311 12.7349C41.8139 12.7764 41.5339 12.9873 41.5339 13.3843C41.5339 13.7895 41.8838 14.0254 42.3651 14.0254C42.506 14.0397 42.6485 14.0254 42.7839 13.9833C42.9192 13.9412 43.0448 13.8722 43.1531 13.7804C43.2614 13.6885 43.3502 13.5758 43.4142 13.4487C43.4782 13.3217 43.5161 13.1831 43.5257 13.041Z" fill="white"/>
<path d="M46.7537 10.9434V14.6982H45.8691V10.1953H48.8203V10.9433L46.7537 10.9434Z" fill="white"/>
<path d="M54.1798 12.4458C54.1798 13.8764 53.4595 14.7734 52.328 14.7734C52.0503 14.7925 51.7729 14.7314 51.5285 14.5974C51.2842 14.4634 51.083 14.262 50.9487 14.017H50.8787V16.1962H49.9941V10.1962H50.8457V10.9404H50.9118C51.0485 10.6869 51.2523 10.4762 51.5006 10.3317C51.749 10.1872 52.0323 10.1145 52.3193 10.1216C53.4595 10.1215 54.1798 11.0146 54.1798 12.4458ZM53.27 12.4458C53.27 11.4946 52.8218 10.9199 52.0724 10.9199C51.3279 10.9199 50.8622 11.5068 50.8622 12.4497C50.8622 13.3881 51.3278 13.9755 52.0685 13.9755C52.8218 13.9755 53.27 13.4008 53.27 12.4458Z" fill="white"/>
<path d="M55.3573 16.311V15.5459C55.453 15.5581 55.5495 15.5637 55.6459 15.5625C55.8344 15.5765 56.0214 15.5201 56.171 15.4042C56.3206 15.2882 56.4223 15.1208 56.4566 14.9341L56.5227 14.7148L54.9004 10.1953H55.8637L56.9874 13.772H57.0574L58.1772 10.1953H59.1152L57.4443 14.8843C57.0613 15.98 56.6375 16.3316 55.7238 16.3316C55.6499 16.3315 55.4399 16.3232 55.3573 16.311Z" fill="white"/>
<path d="M59.8047 13.4205H60.6854C60.7719 13.8175 61.1422 14.0245 61.6603 14.0245C62.2494 14.0245 62.611 13.7638 62.611 13.3585C62.611 12.9244 62.2863 12.7174 61.6603 12.7174H60.9896V12.027H61.6487C62.1833 12.027 62.4555 11.8204 62.4555 11.444C62.4555 11.1134 62.192 10.861 61.6487 10.861C61.1539 10.861 60.7923 11.0719 60.7349 11.4274H59.8825C59.9462 11.0189 60.1669 10.6519 60.4972 10.4053C60.8275 10.1586 61.241 10.0521 61.6487 10.1085C62.714 10.1085 63.3235 10.5924 63.3235 11.3532C63.3285 11.565 63.2609 11.7721 63.1321 11.9399C63.0033 12.1077 62.8211 12.226 62.6159 12.275V12.3454C62.8602 12.377 63.0844 12.4977 63.246 12.6844C63.4077 12.8712 63.4954 13.1111 63.4926 13.3585C63.4926 14.2145 62.7675 14.7809 61.6603 14.7809C60.6815 14.7809 59.8863 14.3302 59.8047 13.4205Z" fill="white"/>
<path d="M64.7676 14.6982V10.1953H65.6444V13.2925H65.7144L67.78 10.1953H68.6568V14.6983H67.78V11.5845H67.7139L65.6444 14.6983L64.7676 14.6982Z" fill="white"/>
<path d="M73.4858 10.9433H72.0743V14.6982H71.1888V10.9433H69.7773V10.1953H73.4858V10.9433Z" fill="white"/>
<path d="M78.2515 13.4835C78.1309 13.895 77.8703 14.2509 77.5152 14.489C77.16 14.7271 76.7328 14.8323 76.3083 14.7862C76.013 14.794 75.7196 14.7372 75.4483 14.6197C75.1771 14.5022 74.9346 14.3267 74.7376 14.1056C74.5406 13.8845 74.3938 13.6229 74.3075 13.3391C74.2213 13.0553 74.1975 12.756 74.2379 12.462C74.1985 12.1671 74.2227 11.8672 74.3088 11.5825C74.3949 11.2978 74.5409 11.0351 74.7368 10.812C74.9328 10.5889 75.1742 10.4107 75.4446 10.2895C75.7151 10.1683 76.0083 10.1069 76.3044 10.1095C77.5516 10.1095 78.3049 10.9655 78.3049 12.3795V12.6895H75.1399V12.7393C75.1259 12.9046 75.1465 13.071 75.2003 13.2279C75.2541 13.3847 75.34 13.5285 75.4524 13.6499C75.5648 13.7714 75.7013 13.868 75.8531 13.9333C76.0048 13.9986 76.1685 14.0314 76.3336 14.0293C76.5451 14.0547 76.7593 14.0164 76.949 13.9192C77.1387 13.822 77.2953 13.6703 77.399 13.4835L78.2515 13.4835ZM75.1399 12.0323H77.4028C77.414 11.8813 77.3936 11.7295 77.343 11.5869C77.2923 11.4442 77.2125 11.3138 77.1087 11.2039C77.0049 11.0941 76.8794 11.0072 76.7402 10.949C76.601 10.8908 76.4513 10.8624 76.3005 10.8658C76.1475 10.8637 75.9956 10.8925 75.8538 10.9504C75.712 11.0082 75.5832 11.0941 75.4751 11.2028C75.3669 11.3116 75.2815 11.441 75.2239 11.5835C75.1663 11.726 75.1378 11.8786 75.1399 12.0323H75.1399Z" fill="white"/>
<path d="M82.002 10.1953H84.0228C84.8996 10.1953 85.4139 10.6416 85.4139 11.3403C85.4152 11.562 85.3407 11.7775 85.2029 11.9506C85.0651 12.1238 84.8722 12.2441 84.6566 12.2915V12.3618C84.9184 12.3784 85.1638 12.4954 85.3422 12.6886C85.5205 12.8818 85.6182 13.1364 85.6151 13.3999C85.6151 14.1855 85.027 14.6982 84.0433 14.6982H82.002V10.1953ZM82.8788 10.8774V12.0434H83.7555C84.2902 12.0434 84.5458 11.8369 84.5458 11.456C84.5458 11.105 84.3232 10.8774 83.8537 10.8774L82.8788 10.8774ZM82.8788 12.6968V14.0161H83.9276C84.4506 14.0161 84.7305 13.7842 84.7305 13.3584C84.7305 12.9077 84.4137 12.6968 83.8168 12.6968L82.8788 12.6968Z" fill="white"/>
</g>
<defs>
<clipPath id="clip0_646_3304">
<rect width="134" height="40" fill="white"/>
</clipPath>
</defs>
</svg>
