<svg width="134" height="40" viewBox="0 0 134 40" fill="none" xmlns="http://www.w3.org/2000/svg">
<g clip-path="url(#clip0_646_3305)">
<path d="M129.037 0H4.96296C2.22199 0 0 2.23858 0 5V35C0 37.7614 2.22199 40 4.96296 40H129.037C131.778 40 134 37.7614 134 35V5C134 2.23858 131.778 0 129.037 0Z" fill="black"/>
<path d="M129.037 0.8C130.143 0.8 131.203 1.2425 131.985 2.03015C132.767 2.8178 133.206 3.88609 133.206 5V35C133.206 36.1139 132.767 37.1822 131.985 37.9698C131.203 38.7575 130.143 39.2 129.037 39.2H4.96296C3.8573 39.2 2.79693 38.7575 2.01511 37.9698C1.23329 37.1822 0.794074 36.1139 0.794074 35V5C0.794074 3.88609 1.23329 2.8178 2.01511 2.03015C2.79693 1.2425 3.8573 0.8 4.96296 0.8H129.037ZM129.037 0H4.96296C3.6467 0 2.38435 0.526784 1.45362 1.46447C0.522882 2.40215 0 3.67392 0 5V35C0 36.3261 0.522882 37.5979 1.45362 38.5355C2.38435 39.4732 3.6467 40 4.96296 40H129.037C130.353 40 131.616 39.4732 132.546 38.5355C133.477 37.5979 134 36.3261 134 35V5C134 3.67392 133.477 2.40215 132.546 1.46447C131.616 0.526784 130.353 0 129.037 0Z" fill="#A6A6A6"/>
<path d="M67.6354 21.7519C66.7991 21.7539 65.9821 22.0056 65.2879 22.4754C64.5936 22.9451 64.0532 23.6117 63.735 24.3909C63.4167 25.17 63.335 26.0268 63.5001 26.8528C63.6652 27.6787 64.0696 28.4368 64.6624 29.0312C65.2551 29.6256 66.0095 30.0295 66.8301 30.1919C67.6507 30.3544 68.5008 30.268 69.2726 29.9438C70.0445 29.6195 70.7037 29.0719 71.1667 28.3703C71.6296 27.6686 71.8757 26.8444 71.8738 26.0019C71.8819 25.4398 71.7776 24.8819 71.5672 24.3612C71.3568 23.8406 71.0446 23.3679 70.6492 22.9714C70.2537 22.5748 69.7831 22.2625 69.2653 22.053C68.7476 21.8435 68.1932 21.7411 67.6354 21.7519ZM67.6354 28.5819C67.1228 28.618 66.6113 28.4979 66.1673 28.2373C65.7233 27.9766 65.3675 27.5874 65.146 27.1203C64.9245 26.6532 64.8476 26.1298 64.9253 25.618C65.003 25.1063 65.2317 24.63 65.5817 24.2509C65.9317 23.8719 66.3867 23.6077 66.8877 23.4927C67.3887 23.3776 67.9125 23.4171 68.3909 23.606C68.8694 23.7948 69.2804 24.1243 69.5705 24.5516C69.8606 24.9789 70.0164 25.4842 70.0176 26.0019C70.0336 26.3299 69.9842 26.6578 69.8724 26.9663C69.7606 27.2748 69.5886 27.5576 69.3666 27.7981C69.1446 28.0385 68.877 28.2317 68.5797 28.3664C68.2824 28.501 67.9613 28.5743 67.6354 28.5819ZM58.3844 21.7519C57.5481 21.7539 56.7312 22.0056 56.0369 22.4754C55.3426 22.9451 54.8022 23.6117 54.484 24.3909C54.1658 25.17 54.084 26.0268 54.2491 26.8528C54.4142 27.6787 54.8187 28.4368 55.4114 29.0312C56.0042 29.6256 56.7586 30.0295 57.5792 30.1919C58.3998 30.3544 59.2498 30.268 60.0217 29.9438C60.7936 29.6195 61.4527 29.0719 61.9157 28.3703C62.3787 27.6686 62.6248 26.8444 62.6228 26.0019C62.6309 25.4398 62.5266 24.8819 62.3163 24.3612C62.1059 23.8406 61.7936 23.3679 61.3982 22.9714C61.0027 22.5748 60.5321 22.2625 60.0144 22.053C59.4966 21.8435 58.9423 21.7411 58.3844 21.7519ZM58.3844 28.5819C57.8718 28.618 57.3603 28.4979 56.9163 28.2373C56.4724 27.9766 56.1165 27.5874 55.895 27.1203C55.6735 26.6532 55.5966 26.1298 55.6743 25.618C55.752 25.1063 55.9807 24.63 56.3307 24.2509C56.6807 23.8719 57.1358 23.6077 57.6368 23.4927C58.1378 23.3776 58.6615 23.4171 59.14 23.606C59.6184 23.7948 60.0294 24.1243 60.3195 24.5516C60.6096 24.9789 60.7654 25.4842 60.7666 26.0019C60.7826 26.3299 60.7333 26.6578 60.6215 26.9663C60.5097 27.2748 60.3377 27.5576 60.1156 27.7981C59.8936 28.0385 59.6261 28.2317 59.3287 28.3664C59.0314 28.501 58.7103 28.5743 58.3844 28.5819ZM47.3865 23.0619V24.8619H51.6745C51.6073 25.7097 51.2575 26.5097 50.6819 27.1319C50.2518 27.5734 49.7344 27.919 49.1633 28.1464C48.5923 28.3738 47.9802 28.4778 47.3666 28.4519C46.103 28.4519 44.8912 27.9462 43.9977 27.046C43.1042 26.1458 42.6022 24.9249 42.6022 23.6519C42.6022 22.3788 43.1042 21.1579 43.9977 20.2578C44.8912 19.3576 46.103 18.8519 47.3666 18.8519C48.5781 18.8337 49.7478 19.2972 50.6223 20.1419L51.8829 18.8719C51.2913 18.2824 50.5889 17.8178 49.8168 17.5052C49.0447 17.1927 48.2185 17.0386 47.3865 17.0519C46.5041 17.0173 45.6238 17.1625 44.7984 17.4788C43.9731 17.7952 43.2196 18.2761 42.5831 18.8929C41.9466 19.5096 41.4403 20.2495 41.0944 21.0681C40.7486 21.8867 40.5703 22.7672 40.5703 23.6569C40.5703 24.5466 40.7486 25.4271 41.0944 26.2457C41.4403 27.0643 41.9466 27.8041 42.5831 28.4209C43.2196 29.0376 43.9731 29.5186 44.7984 29.8349C45.6238 30.1513 46.5041 30.2965 47.3865 30.2619C48.2356 30.296 49.0822 30.1489 49.8709 29.83C50.6595 29.5112 51.3723 29.0279 51.9623 28.4119C53.0047 27.2583 53.5601 25.7411 53.5108 24.1819C53.5143 23.8066 53.4844 23.4318 53.4215 23.0619H47.3865ZM92.3609 24.4619C92.102 23.6946 91.6179 23.0247 90.9727 22.5407C90.3275 22.0568 89.5517 21.7817 88.7478 21.7519C88.2049 21.7508 87.6675 21.8619 87.1689 22.0784C86.6702 22.2949 86.221 22.6121 85.8488 23.0104C85.4767 23.4087 85.1897 23.8797 85.0054 24.3943C84.8211 24.9088 84.7435 25.4559 84.7775 26.0019C84.769 26.9147 85.0538 27.8059 85.5895 28.5421C86.1252 29.2784 86.8829 29.8204 87.7495 30.087C88.6162 30.3537 89.5451 30.3307 90.3977 30.0216C91.2503 29.7125 91.9808 29.1337 92.48 28.3719L91.0407 27.3719C90.8262 27.7322 90.5219 28.0297 90.158 28.2349C89.7941 28.4401 89.3832 28.546 88.9662 28.5419C88.536 28.5598 88.1105 28.4461 87.7455 28.2159C87.3806 27.9857 87.0933 27.6496 86.9215 27.2519L92.5693 24.9019L92.3609 24.4619ZM86.6038 25.8819C86.5837 25.5713 86.6253 25.2597 86.7262 24.9655C86.8271 24.6713 86.9852 24.4003 87.1914 24.1684C87.3975 23.9365 87.6475 23.7484 87.9267 23.6151C88.2059 23.4817 88.5087 23.4058 88.8173 23.3919C89.1371 23.3722 89.4556 23.4481 89.7328 23.6099C90.01 23.7718 90.2337 24.0125 90.3757 24.3019L86.6038 25.8819ZM82.0181 30.0019H83.8742V17.5019H82.0181V30.0019ZM78.9807 22.7019H78.9112C78.634 22.3837 78.2917 22.1297 77.908 21.9571C77.5243 21.7845 77.1081 21.6974 76.6878 21.7019C75.6031 21.7549 74.5802 22.2263 73.8311 23.0185C73.082 23.8106 72.6642 24.8628 72.6642 25.9569C72.6642 27.051 73.082 28.1031 73.8311 28.8953C74.5802 29.6875 75.6031 30.1589 76.6878 30.2119C77.1087 30.2204 77.5261 30.1352 77.9105 29.9623C78.2948 29.7894 78.6366 29.5332 78.9112 29.2119H78.9807V29.8219C78.9807 31.4519 78.1172 32.3219 76.7275 32.3219C76.2633 32.3116 75.8126 32.1626 75.4326 31.8937C75.0527 31.6249 74.7606 31.2483 74.5935 30.8119L72.9855 31.4819C73.2827 32.2341 73.7996 32.8778 74.4678 33.3277C75.136 33.7777 75.9239 34.0128 76.7275 34.0019C78.9013 34.0019 80.6979 32.7119 80.6979 29.5719V22.0019H78.9807V22.7019ZM76.8466 28.5819C76.1963 28.541 75.5859 28.252 75.1397 27.7735C74.6935 27.2951 74.4451 26.6633 74.4451 26.0069C74.4451 25.3504 74.6935 24.7186 75.1397 24.2402C75.5859 23.7618 76.1963 23.4727 76.8466 23.4319C77.1645 23.4457 77.4764 23.5238 77.7637 23.6615C78.051 23.7992 78.3078 23.9938 78.519 24.2336C78.7301 24.4733 78.8912 24.7534 78.9927 25.0572C79.0942 25.361 79.134 25.6823 79.1098 26.0019C79.1368 26.3226 79.0991 26.6455 78.9988 26.951C78.8984 27.2566 78.7376 27.5385 78.5261 27.7797C78.3145 28.0208 78.0566 28.2163 77.768 28.3542C77.4793 28.492 77.1659 28.5695 76.8466 28.5819ZM101.056 17.5019H96.6092V30.0019H98.4653V25.2619H101.056C101.585 25.3002 102.116 25.2282 102.616 25.0506C103.117 24.873 103.575 24.5934 103.963 24.2294C104.352 23.8653 104.661 23.4246 104.873 22.9347C105.085 22.4448 105.194 21.9162 105.194 21.3819C105.194 20.8475 105.085 20.319 104.873 19.829C104.661 19.3391 104.352 18.8984 103.963 18.5344C103.575 18.1703 103.117 17.8908 102.616 17.7131C102.116 17.5355 101.585 17.4636 101.056 17.5019ZM101.056 23.5019H98.4653V19.2419H101.096C101.375 19.2419 101.651 19.2972 101.909 19.4048C102.166 19.5123 102.4 19.6699 102.598 19.8687C102.795 20.0674 102.951 20.3033 103.058 20.5629C103.165 20.8226 103.22 21.1008 103.22 21.3819C103.22 21.6629 103.165 21.9412 103.058 22.2008C102.951 22.4605 102.795 22.6964 102.598 22.8951C102.4 23.0938 102.166 23.2514 101.909 23.359C101.651 23.4665 101.375 23.5219 101.096 23.5219L101.056 23.5019ZM112.51 21.7119C111.835 21.6699 111.161 21.8284 110.574 22.1679C109.986 22.5074 109.51 23.0129 109.205 23.6219L110.843 24.3119C111.008 24.0113 111.257 23.7654 111.558 23.6039C111.859 23.4424 112.2 23.3723 112.54 23.4019C112.776 23.3742 113.015 23.394 113.243 23.4602C113.471 23.5264 113.683 23.6377 113.868 23.7876C114.053 23.9375 114.206 24.1229 114.319 24.3331C114.432 24.5433 114.502 24.774 114.525 25.0119V25.1319C113.929 24.8158 113.264 24.651 112.59 24.6519C110.823 24.6519 109.017 25.6519 109.017 27.4719C109.034 27.8587 109.129 28.2381 109.294 28.5874C109.46 28.9368 109.694 29.249 109.982 29.5055C110.27 29.762 110.606 29.9576 110.971 30.0807C111.335 30.2037 111.72 30.2518 112.104 30.2219C112.569 30.2478 113.034 30.1485 113.449 29.9341C113.864 29.7198 114.215 29.398 114.466 29.0019H114.525V30.0019H116.312V25.1919C116.312 23.0019 114.664 21.7319 112.55 21.7319L112.51 21.7119ZM112.282 28.5619C111.677 28.5619 110.833 28.2519 110.833 27.5019C110.833 26.5019 111.885 26.1619 112.818 26.1619C113.408 26.1472 113.991 26.2923 114.506 26.5819C114.443 27.1249 114.188 27.6269 113.786 27.9946C113.385 28.3623 112.864 28.571 112.322 28.5819L112.282 28.5619ZM122.824 22.0019L120.699 27.4219H120.64L118.436 22.0019H116.451L119.756 29.5819L117.87 33.7919H119.806L124.888 22.0019H122.824ZM106.148 30.0019H107.994V17.5019H106.148V30.0019Z" fill="white"/>
<path d="M10.3634 7.53875C10.0363 7.92837 9.86938 8.42921 9.89685 8.93875V31.0588C9.86307 31.5691 10.0307 32.0723 10.3634 32.4587L10.4328 32.5388L22.7311 20.1488V19.8488L10.4328 7.46875L10.3634 7.53875Z" fill="url(#paint0_linear_646_3305)"/>
<path d="M26.8001 24.2787L22.7305 20.1488V19.8488L26.8001 15.7188L26.8894 15.7788L31.7631 18.5588C33.1527 19.3488 33.1527 20.6488 31.7631 21.4488L26.9093 24.2288L26.8001 24.2787Z" fill="url(#paint1_linear_646_3305)"/>
<path d="M26.9197 24.22L22.731 20L10.3633 32.46C10.6438 32.7115 11.0028 32.8562 11.3781 32.869C11.7533 32.8818 12.1212 32.7619 12.4179 32.53L26.9197 24.22Z" fill="url(#paint2_linear_646_3305)"/>
<path d="M26.9197 15.7805L12.4179 7.48046C12.1232 7.24537 11.7556 7.12251 11.3798 7.13349C11.004 7.14446 10.644 7.28857 10.3633 7.54046L22.731 20.0005L26.9197 15.7805Z" fill="url(#paint3_linear_646_3305)"/>
<path opacity="0.2" d="M26.8006 24.1289L12.4179 32.3789C12.132 32.5963 11.7836 32.7139 11.4254 32.7139C11.0671 32.7139 10.7187 32.5963 10.4328 32.3789L10.3633 32.4489L10.4328 32.5289C10.7187 32.7463 11.0671 32.8639 11.4254 32.8639C11.7836 32.8639 12.132 32.7463 12.4179 32.5289L26.9197 24.2189L26.8006 24.1289Z" fill="black"/>
<path opacity="0.12" d="M10.3624 32.3202C10.0435 31.9235 9.88728 31.4191 9.92562 30.9102V31.0602C9.89184 31.5705 10.0595 32.0737 10.3921 32.4602L10.4616 32.3902L10.3624 32.3202Z" fill="black"/>
<path opacity="0.12" d="M31.7637 21.3L26.8008 24.13L26.8901 24.22L31.7637 21.44C32.0514 21.3175 32.301 21.119 32.4861 20.8656C32.6713 20.6122 32.7852 20.3132 32.8159 20C32.7538 20.2846 32.6263 20.5505 32.4435 20.7763C32.2608 21.0021 32.0279 21.1815 31.7637 21.3Z" fill="black"/>
<path opacity="0.25" d="M12.4177 7.62096L31.7633 18.701C32.0275 18.8195 32.2603 18.9989 32.4431 19.2247C32.6258 19.4505 32.7534 19.7164 32.8155 20.001C32.7848 19.6878 32.6709 19.3888 32.4857 19.1354C32.3005 18.8819 32.051 18.6835 31.7633 18.561L12.4177 7.48095C11.038 6.68095 9.89648 7.34096 9.89648 8.94096V9.09096C9.92626 7.49096 11.038 6.83096 12.4177 7.62096Z" fill="white"/>
<path d="M41.7988 14.27H41.0742V12.27H41.6896C41.9665 11.9672 42.1747 11.6073 42.2998 11.2153C42.425 10.8234 42.464 10.4087 42.4142 10V7H46.3846V12.26H47.0496V14.26H46.3151V13H41.7988V14.27ZM43.1785 10C43.2228 10.8033 43.0256 11.6014 42.6127 12.29H45.5905V7.74H43.1785V10Z" fill="white" stroke="white" stroke-width="0.407191" stroke-miterlimit="10"/>
<path d="M53.0138 12.222C52.728 12.5108 52.3884 12.7399 52.0145 12.8962C51.6407 13.0525 51.2398 13.133 50.8351 13.133C50.4303 13.133 50.0295 13.0525 49.6556 12.8962C49.2817 12.7399 48.9422 12.5108 48.6563 12.222C48.0885 11.6245 47.7715 10.8293 47.7715 10.002C47.7715 9.17482 48.0885 8.37953 48.6563 7.78204C48.9422 7.49328 49.2817 7.26419 49.6556 7.10787C50.0295 6.95156 50.4303 6.87109 50.8351 6.87109C51.2398 6.87109 51.6407 6.95156 52.0145 7.10787C52.3884 7.26419 52.728 7.49328 53.0138 7.78204C53.3005 8.07403 53.5264 8.42086 53.6781 8.80212C53.8299 9.18337 53.9043 9.59135 53.8972 10.002C53.9089 10.4133 53.8366 10.8227 53.6846 11.2046C53.5326 11.5865 53.3043 11.9328 53.0138 12.222ZM49.2122 11.722C49.4213 11.9409 49.6728 12.1141 49.9511 12.2311C50.2294 12.3481 50.5286 12.4062 50.8301 12.402C51.1319 12.4081 51.4316 12.3507 51.7101 12.2336C51.9887 12.1166 52.24 11.9423 52.448 11.722C52.8763 11.2532 53.114 10.6392 53.114 10.002C53.114 9.36483 52.8763 8.75091 52.448 8.28204C52.24 8.06174 51.9887 7.88751 51.7101 7.77043C51.4316 7.65336 51.1319 7.59601 50.8301 7.60204C50.5286 7.59782 50.2294 7.656 49.9511 7.77296C49.6728 7.88993 49.4213 8.06319 49.2122 8.28204C48.7902 8.75404 48.5567 9.36678 48.5567 10.002C48.5567 10.6373 48.7902 11.25 49.2122 11.722Z" fill="white" stroke="white" stroke-width="0.407191" stroke-miterlimit="10"/>
<path d="M57.7496 13.1284C57.348 13.1348 56.9493 13.0592 56.5774 12.9062C56.2055 12.7533 55.8682 12.5261 55.5858 12.2384C55.013 11.6354 54.6934 10.833 54.6934 9.99843C54.6934 9.16383 55.013 8.36143 55.5858 7.75843C55.8728 7.46577 56.2166 7.23573 56.5957 7.08262C56.9748 6.92951 57.3811 6.8566 57.7893 6.86843C58.2049 6.85658 58.6176 6.94051 58.996 7.11382C59.3745 7.28712 59.7086 7.54522 59.973 7.86843L59.4469 8.38842C59.2519 8.13584 58.9996 7.93409 58.7112 7.8001C58.4228 7.66612 58.1066 7.60382 57.7893 7.61843C57.4838 7.61057 57.1799 7.66599 56.8965 7.78123C56.6131 7.89648 56.3561 8.06911 56.1416 8.28843C55.7141 8.76164 55.4771 9.37852 55.4771 10.0184C55.4771 10.6583 55.7141 11.2752 56.1416 11.7484C56.3561 11.9677 56.6131 12.1404 56.8965 12.2556C57.1799 12.3709 57.4838 12.4263 57.7893 12.4184C58.1304 12.4087 58.4652 12.324 58.7704 12.1702C59.0756 12.0165 59.3437 11.7975 59.5561 11.5284L60.0921 12.0584C59.8202 12.3867 59.4818 12.6527 59.0995 12.8384C58.6773 13.0372 58.2156 13.1363 57.7496 13.1284Z" fill="white" stroke="white" stroke-width="0.407191" stroke-miterlimit="10"/>
<path d="M63.2092 13H62.4449V7.74H60.7773V7H64.8668V7.74H63.2092V13Z" fill="white" stroke="white" stroke-width="0.407191" stroke-miterlimit="10"/>
<path d="M70.1271 7L67.8739 12.06C67.8193 12.2629 67.7215 12.4514 67.5873 12.6124C67.4532 12.7734 67.2859 12.9031 67.0971 12.9925C66.9082 13.0819 66.7024 13.1289 66.4937 13.1302C66.2851 13.1315 66.0786 13.0871 65.8887 13L66.0872 12.29C66.2087 12.3588 66.345 12.3965 66.4843 12.4C66.6312 12.4074 66.7767 12.369 66.9012 12.29C67.0217 12.1889 67.1141 12.058 67.1692 11.91L67.3875 11.43L65.4023 7H66.3056L67.7746 10.44L69.2238 7H70.1271Z" fill="white" stroke="white" stroke-width="0.407191" stroke-miterlimit="10"/>
<path d="M70.9902 13V7H75.2981V13H74.5338V7.74H71.7545V13H70.9902Z" fill="white" stroke="white" stroke-width="0.407191" stroke-miterlimit="10"/>
<path d="M76.6582 13V7H77.4225V9.57H80.4003V7H81.1745V13H80.4003V10.29H77.4225V13H76.6582Z" fill="white" stroke="white" stroke-width="0.407191" stroke-miterlimit="10"/>
<path d="M87.4085 12.222C87.1218 12.5111 86.7814 12.7404 86.4067 12.8969C86.032 13.0533 85.6304 13.1338 85.2248 13.1338C84.8192 13.1338 84.4176 13.0533 84.0429 12.8969C83.6682 12.7404 83.3278 12.5111 83.0411 12.222C82.4732 11.6245 82.1563 10.8293 82.1562 10.002C82.1563 9.17481 82.4732 8.37953 83.0411 7.78204C83.3269 7.49328 83.6665 7.26419 84.0404 7.10787C84.4142 6.95156 84.8151 6.87109 85.2198 6.87109C85.6246 6.87109 86.0254 6.95156 86.3993 7.10787C86.7732 7.26419 87.1127 7.49328 87.3986 7.78204C87.9619 8.38185 88.2759 9.17626 88.2759 10.002C88.2759 10.8278 87.9619 11.6222 87.3986 12.222H87.4085ZM83.6069 11.722C83.8149 11.9423 84.0662 12.1166 84.3448 12.2336C84.6233 12.3507 84.923 12.4081 85.2248 12.402C85.5263 12.4062 85.8255 12.3481 86.1038 12.2311C86.3821 12.1141 86.6336 11.9409 86.8427 11.722C87.2647 11.25 87.4983 10.6373 87.4983 10.002C87.4983 9.36678 87.2647 8.75404 86.8427 8.28204C86.6336 8.06319 86.3821 7.88993 86.1038 7.77296C85.8255 7.656 85.5263 7.59782 85.2248 7.60204C84.923 7.59601 84.6233 7.65336 84.3448 7.77043C84.0662 7.88751 83.8149 8.06174 83.6069 8.28204C83.1786 8.75091 82.9409 9.36483 82.9409 10.002C82.9409 10.6392 83.1786 11.2532 83.6069 11.722Z" fill="white" stroke="white" stroke-width="0.407191" stroke-miterlimit="10"/>
<path d="M91.4082 13.0001V7.00009H93.5621C94.0087 6.99558 94.4407 7.15968 94.7731 7.46009C94.939 7.6051 95.0712 7.78507 95.1604 7.98725C95.2496 8.18943 95.2936 8.40888 95.2892 8.63009C95.2916 8.89947 95.2157 9.16366 95.0709 9.39009C94.9244 9.6048 94.7216 9.77441 94.4853 9.88009C94.7718 9.97881 95.0236 10.1595 95.2098 10.4001C95.3923 10.6452 95.4899 10.9438 95.4878 11.2501C95.4928 11.4806 95.4474 11.7094 95.3548 11.9203C95.2622 12.1312 95.1246 12.3189 94.9518 12.4701C94.6073 12.7931 94.1518 12.9687 93.6812 12.9601L91.4082 13.0001ZM92.1725 9.57009H93.5621C93.6922 9.57767 93.8222 9.55552 93.9425 9.5053C94.0628 9.45508 94.1703 9.37809 94.257 9.28009C94.4253 9.11392 94.5216 8.88748 94.525 8.65009C94.5343 8.41196 94.4526 8.17928 94.2967 8.00009C94.2132 7.90683 94.1103 7.83336 93.9953 7.78494C93.8803 7.73653 93.7561 7.71438 93.6316 7.72009H92.2023L92.1725 9.57009ZM92.1725 12.2601H93.7209C93.8554 12.2646 93.9892 12.2392 94.1127 12.1856C94.2362 12.132 94.3465 12.0516 94.4356 11.9501C94.607 11.7657 94.7028 11.5227 94.7036 11.2701C94.6976 11.0196 94.5984 10.7805 94.4257 10.6001C94.33 10.4989 94.2143 10.419 94.0861 10.3656C93.9579 10.3122 93.8199 10.2865 93.6812 10.2901H92.1725V12.2601Z" fill="white" stroke="white" stroke-width="0.407191" stroke-miterlimit="10"/>
</g>
<defs>
<linearGradient id="paint0_linear_646_3305" x1="21.6392" y1="8.70875" x2="4.85968" y2="25.364" gradientUnits="userSpaceOnUse">
<stop stop-color="#00A0FF"/>
<stop offset="0.01" stop-color="#00A1FF"/>
<stop offset="0.26" stop-color="#00BEFF"/>
<stop offset="0.51" stop-color="#00D2FF"/>
<stop offset="0.76" stop-color="#00DFFF"/>
<stop offset="1" stop-color="#00E3FF"/>
</linearGradient>
<linearGradient id="paint1_linear_646_3305" x1="33.5795" y1="19.9987" x2="9.56869" y2="19.9987" gradientUnits="userSpaceOnUse">
<stop stop-color="#FFE000"/>
<stop offset="0.41" stop-color="#FFBD00"/>
<stop offset="0.78" stop-color="#FFA500"/>
<stop offset="1" stop-color="#FF9C00"/>
</linearGradient>
<linearGradient id="paint2_linear_646_3305" x1="24.6467" y1="22.3" x2="1.88739" y2="44.8808" gradientUnits="userSpaceOnUse">
<stop stop-color="#FF3A44"/>
<stop offset="1" stop-color="#C31162"/>
</linearGradient>
<linearGradient id="paint3_linear_646_3305" x1="7.24654" y1="0.180458" x2="17.4063" y2="10.2649" gradientUnits="userSpaceOnUse">
<stop stop-color="#32A071"/>
<stop offset="0.07" stop-color="#2DA771"/>
<stop offset="0.48" stop-color="#15CF74"/>
<stop offset="0.8" stop-color="#06E775"/>
<stop offset="1" stop-color="#00F076"/>
</linearGradient>
<clipPath id="clip0_646_3305">
<rect width="134" height="40" fill="white"/>
</clipPath>
</defs>
</svg>
