<svg width="134" height="40" viewBox="0 0 134 40" fill="none" xmlns="http://www.w3.org/2000/svg">
<g clip-path="url(#clip0_643_10487)">
<path d="M0 5.71431C0 2.55837 2.52605 0 5.6421 0H128.358C131.474 0 134 2.55838 134 5.71431V34.2857C134 37.4416 131.474 40 128.358 40H5.6421C2.52605 40 0 37.4416 0 34.2857V5.71431Z" fill="black"/>
<path fill-rule="evenodd" clip-rule="evenodd" d="M128.358 0.769231H5.6421C3.09675 0.769231 0.858974 2.89151 0.858974 5.71431V34.2857C0.858974 37.1085 3.09675 39.2308 5.6421 39.2308H128.358C130.903 39.2308 133.141 37.1085 133.141 34.2857V5.71431C133.141 2.89151 130.903 0.769231 128.358 0.769231ZM5.6421 0C2.52605 0 0 2.55837 0 5.71431V34.2857C0 37.4416 2.52605 40 5.6421 40H128.358C131.474 40 134 37.4416 134 34.2857V5.71431C134 2.55837 131.474 0 128.358 0H5.6421Z" fill="#A6A6A6"/>
<path d="M10.5496 31.6645C12.4703 33.5725 15.5617 33.5725 21.7445 33.5725H22.8374C29.0202 33.5725 32.1116 33.5725 34.0323 31.6645C35.953 29.7566 35.953 26.6857 35.953 20.5439V19.4582C35.953 13.3165 35.953 10.2456 34.0323 8.33761C32.1116 6.42969 29.0202 6.42969 22.8374 6.42969H21.7445C15.5617 6.42969 12.4703 6.42969 10.5496 8.33761C8.62891 10.2456 8.62891 13.3165 8.62891 19.4582V20.5439C8.62891 26.6857 8.62891 29.7566 10.5496 31.6645Z" fill="#0077FF"/>
<path fill-rule="evenodd" clip-rule="evenodd" d="M29.7253 24.4682L27.8791 24.01C27.6567 23.9466 27.4998 23.748 27.4919 23.517L27.2615 16.767C27.1948 15.8736 26.5272 15.163 25.8295 14.9537C25.7904 14.942 25.7485 14.9578 25.7253 14.9913C25.7017 15.0253 25.7109 15.0724 25.7437 15.0976C25.916 15.2302 26.3902 15.6625 26.3902 16.4082L26.3888 25.2337C26.3888 26.0859 25.5782 26.7109 24.742 26.5034L22.8673 26.0382C22.6594 25.966 22.515 25.7736 22.5074 25.5518L22.2771 18.8013C22.2104 17.9079 21.5428 17.1973 20.8451 16.988C20.8059 16.9763 20.7641 16.9921 20.7409 17.0256C20.7174 17.0596 20.7265 17.1067 20.7593 17.132C20.9316 17.2645 21.4058 17.6968 21.4058 18.4425L21.4044 25.799L21.4055 25.7992V27.2689C21.4055 28.121 20.5948 28.7461 19.7586 28.5386L14.4633 27.2246C13.7271 27.0419 13.2109 26.3877 13.2109 25.6374V16.7981C13.2109 15.946 14.0216 15.321 14.8577 15.5284L18.1944 16.3564V14.763C18.1944 13.9108 19.005 13.2857 19.8412 13.4933L23.1776 14.3212V12.7277C23.1776 11.8756 23.9882 11.2505 24.8244 11.458L30.1198 12.772C30.856 12.9547 31.3721 13.6089 31.3721 14.3592V23.1985C31.3721 24.0506 30.5615 24.6756 29.7253 24.4682Z" fill="white"/>
<path d="M51.9572 31.4294H49.8691L46.5557 26.8352H44.8127V31.4294H43.0352V19.3438H47.315C48.1433 19.3438 48.8854 19.5037 49.5412 19.8237C50.1969 20.1437 50.7032 20.5894 51.0598 21.1609C51.428 21.7209 51.6121 22.3666 51.6121 23.0981C51.6121 24.0124 51.3302 24.7952 50.7665 25.4466C50.2027 26.0866 49.4491 26.5094 48.5057 26.7152L51.9572 31.4294ZM44.8127 20.9724V25.2237H47.315C48.0513 25.2237 48.6438 25.0294 49.0925 24.6409C49.5527 24.2409 49.7828 23.7266 49.7828 23.0981C49.7828 22.4694 49.5527 21.9609 49.0925 21.5724C48.6438 21.1724 48.0513 20.9724 47.315 20.9724H44.8127Z" fill="white"/>
<path d="M56.6725 31.6007C56.0397 31.6007 55.4702 31.4464 54.964 31.1379C54.4578 30.8179 54.0608 30.3836 53.7732 29.835C53.4856 29.275 53.3418 28.6464 53.3418 27.9493V22.5664H55.033V27.8122C55.033 28.4864 55.2228 29.035 55.6025 29.4579C55.9822 29.8807 56.4711 30.0922 57.0694 30.0922C57.6906 30.0922 58.2083 29.875 58.6225 29.4407C59.0367 29.0064 59.2438 28.4636 59.2438 27.8122V22.5664H60.9351V31.4293H59.727L59.3301 30.0922C59.0425 30.5722 58.6628 30.9436 58.1911 31.2064C57.7309 31.4693 57.2247 31.6007 56.6725 31.6007Z" fill="white"/>
<path d="M67.2389 31.6004C66.123 31.6004 65.1508 31.3147 64.3224 30.7433C63.5056 30.1604 62.9476 29.3719 62.6484 28.3776L64.3569 28.1033C64.6906 28.7433 65.0875 29.2176 65.5477 29.5261C66.0079 29.8233 66.5716 29.9719 67.2389 29.9719C67.9177 29.9719 68.4699 29.8233 68.8957 29.5261C69.3213 29.2176 69.5341 28.8004 69.5341 28.2747C69.5341 27.8861 69.4133 27.5604 69.1718 27.2976C68.9416 27.0347 68.6483 26.8233 68.2916 26.6633C67.935 26.5033 67.469 26.3261 66.8938 26.1319C66.123 25.8804 65.4902 25.629 64.9955 25.3776C64.5008 25.1261 64.0808 24.7719 63.7357 24.3147C63.402 23.8461 63.2352 23.2519 63.2352 22.5319C63.2352 21.8576 63.402 21.269 63.7357 20.7661C64.0808 20.2519 64.5525 19.8576 65.1508 19.5833C65.7491 19.309 66.4163 19.1719 67.1527 19.1719C68.1766 19.1719 69.0567 19.4404 69.793 19.9776C70.5293 20.5033 71.0528 21.229 71.3635 22.1547L69.6895 22.429C69.4594 21.9033 69.1315 21.5033 68.7058 21.229C68.2801 20.9433 67.7797 20.8004 67.2044 20.8004C66.5832 20.8004 66.0712 20.949 65.6685 21.2461C65.2658 21.5319 65.0645 21.9261 65.0645 22.429C65.0645 22.8061 65.1796 23.1261 65.4097 23.389C65.6513 23.6519 65.9446 23.8633 66.2898 24.0233C66.6465 24.1833 67.1182 24.3661 67.7049 24.5719C68.4527 24.8233 69.0739 25.0804 69.5686 25.3433C70.0749 25.5947 70.5005 25.9547 70.8457 26.4233C71.1908 26.8919 71.3635 27.4804 71.3635 28.189C71.3635 28.8747 71.1794 29.4747 70.8112 29.989C70.4546 30.5033 69.9599 30.9033 69.3271 31.189C68.7058 31.4633 68.0097 31.6004 67.2389 31.6004Z" fill="white"/>
<path d="M78.5075 29.9561L78.3525 31.4303H76.782C75.8497 31.4303 75.1426 31.2018 74.6593 30.7446C74.176 30.2875 73.9344 29.6303 73.9344 28.7732V24.0589H72.3984V22.5675H73.9344L74.4005 19.9961H75.6252V22.5675H78.3525V24.0589H75.6252V28.7732C75.6252 29.5618 76.0108 29.9561 76.782 29.9561H78.5075Z" fill="white"/>
<path d="M84.1473 31.6002C83.2379 31.6002 82.4271 31.4059 81.7139 31.0174C81.0008 30.6288 80.4426 30.0859 80.0395 29.3888C79.6371 28.6917 79.4355 27.8974 79.4355 27.0059C79.4355 26.1145 79.6371 25.3202 80.0395 24.6231C80.4426 23.9259 81.0008 23.3831 81.7139 22.9945C82.4271 22.5945 83.2379 22.3945 84.1473 22.3945C85.0559 22.3945 85.8668 22.5945 86.5799 22.9945C87.2938 23.3831 87.8512 23.9259 88.2543 24.6231C88.6567 25.3202 88.8583 26.1145 88.8583 27.0059C88.8583 27.8974 88.6567 28.6917 88.2543 29.3888C87.8512 30.0859 87.2938 30.6288 86.5799 31.0174C85.8668 31.4059 85.0559 31.6002 84.1473 31.6002ZM84.1473 30.0574C85.0216 30.0574 85.7286 29.7774 86.2699 29.2174C86.822 28.6574 87.0984 27.9202 87.0984 27.0059C87.0984 26.0917 86.822 25.3545 86.2699 24.7945C85.7286 24.2231 85.0216 23.9374 84.1473 23.9374C83.2723 23.9374 82.5653 24.2231 82.0247 24.7945C81.4833 25.3545 81.213 26.0917 81.213 27.0059C81.213 27.9088 81.4833 28.6459 82.0247 29.2174C82.5653 29.7774 83.2723 30.0574 84.1473 30.0574Z" fill="white"/>
<path d="M90.6738 31.4293V22.5664H91.8993L92.262 23.835C92.5262 23.3893 92.8545 23.0693 93.2454 22.875C93.6363 22.6693 94.1029 22.5664 94.6434 22.5664H95.0573L95.1955 24.1779H94.2288C93.6081 24.1779 93.1416 24.355 92.8316 24.7093C92.5208 25.0636 92.3651 25.5436 92.3651 26.1493V31.4293H90.6738Z" fill="white"/>
<path d="M104.863 26.9374C104.863 27.1659 104.858 27.3431 104.846 27.4688H97.4767C97.5691 28.2574 97.8799 28.8859 98.409 29.3545C98.9381 29.8231 99.6116 30.0574 100.428 30.0574C100.992 30.0574 101.492 29.9488 101.93 29.7317C102.378 29.5031 102.718 29.2059 102.947 28.8402L104.536 29.0974C104.19 29.8974 103.632 30.5145 102.861 30.9488C102.102 31.3831 101.256 31.6002 100.325 31.6002C99.439 31.6002 98.6449 31.4059 97.9433 31.0174C97.2416 30.6174 96.6949 30.0688 96.304 29.3717C95.9123 28.6745 95.7168 27.8859 95.7168 27.0059C95.7168 26.1145 95.9123 25.3202 96.304 24.6231C96.6949 23.9259 97.2355 23.3831 97.9257 22.9945C98.6159 22.5945 99.4039 22.3945 100.29 22.3945C101.165 22.3945 101.946 22.5945 102.637 22.9945C103.339 23.3831 103.885 23.9259 104.277 24.6231C104.668 25.3088 104.863 26.0802 104.863 26.9374ZM100.29 23.8859C99.6116 23.8859 99.0244 24.0859 98.5297 24.4859C98.0463 24.8859 97.7241 25.4231 97.563 26.0974H103.017C102.867 25.4345 102.545 24.9031 102.05 24.5031C101.567 24.0917 100.981 23.8859 100.29 23.8859Z" fill="white"/>
<path d="M45.5491 14.7079C44.9444 14.7079 44.4007 14.5664 43.9182 14.2833C43.4356 13.9941 43.0569 13.5941 42.7821 13.0833C42.5133 12.5725 42.3789 11.9972 42.3789 11.3572C42.3789 10.7172 42.5133 10.1449 42.7821 9.64024C43.0569 9.12947 43.4326 8.73255 43.909 8.44947C44.3916 8.16024 44.9352 8.01562 45.5399 8.01562C46.1935 8.01562 46.7738 8.18178 47.2808 8.51409C47.7939 8.84024 48.1604 9.28332 48.3803 9.84332L47.4457 9.99101C47.2747 9.64639 47.0212 9.3787 46.6852 9.18793C46.3554 8.99101 45.9828 8.89255 45.5674 8.89255C45.1398 8.89255 44.7581 8.99716 44.4221 9.20639C44.0923 9.41563 43.8327 9.70793 43.6433 10.0833C43.4601 10.4525 43.3684 10.8772 43.3684 11.3572C43.3684 11.8433 43.4601 12.2741 43.6433 12.6495C43.8327 13.0187 44.0953 13.3079 44.4313 13.5172C44.7672 13.7264 45.1521 13.831 45.5857 13.831C46.0133 13.831 46.392 13.7325 46.7219 13.5356C47.0578 13.3325 47.3144 13.0495 47.4915 12.6864L48.4261 12.8341C48.194 13.4064 47.8183 13.8618 47.2991 14.2002C46.7799 14.5387 46.1966 14.7079 45.5491 14.7079Z" fill="white"/>
<path d="M53.2135 14.6161H52.0316L50.2816 12.6407H49.9975V14.6161H49.0996V9.84375H49.9975V11.773H50.2724L51.9491 9.84375H53.0303L50.9962 12.1514L53.2135 14.6161Z" fill="white"/>
<path d="M55.3491 9.75C55.9355 9.75 56.3966 9.94385 56.7326 10.3315C57.0747 10.7131 57.2457 11.2485 57.2457 11.9377V14.6146H56.6043L56.3936 13.8669C56.2409 14.1069 56.0363 14.3069 55.7797 14.4669C55.5232 14.6269 55.2147 14.7069 54.8543 14.7069C54.5367 14.7069 54.2526 14.6423 54.0022 14.5131C53.7518 14.3838 53.5563 14.2054 53.4158 13.9777C53.2753 13.7438 53.2051 13.4823 53.2051 13.1931C53.2051 12.7438 53.3822 12.3838 53.7365 12.1131C54.0908 11.8423 54.6039 11.7069 55.2758 11.7069H56.3478C56.3233 11.3315 56.2195 11.0423 56.0363 10.8392C55.853 10.63 55.6087 10.5254 55.3033 10.5254C55.0712 10.5254 54.8665 10.5808 54.6894 10.6915C54.5122 10.8023 54.3779 10.9469 54.2862 11.1254L53.4525 10.9869C53.5746 10.6054 53.8098 10.3038 54.158 10.0823C54.5061 9.86077 54.9032 9.75 55.3491 9.75ZM55.0467 13.9408C55.4315 13.9408 55.7431 13.8146 55.9813 13.5623C56.2256 13.3038 56.3478 12.95 56.3478 12.5008V12.4454H55.3033C54.5092 12.4454 54.1122 12.6854 54.1122 13.1654C54.1122 13.3992 54.1977 13.5869 54.3687 13.7285C54.5397 13.87 54.7657 13.9408 55.0467 13.9408Z" fill="white"/>
<path d="M60.7631 12.8807C60.6165 12.9484 60.4424 13.0007 60.2409 13.0376C60.0393 13.0745 59.8408 13.093 59.6453 13.093C59.0772 13.093 58.6405 12.933 58.3351 12.613C58.0297 12.293 57.877 11.8407 57.877 11.2561V9.84375H58.7749V11.2561C58.7749 11.9391 59.1017 12.2807 59.7552 12.2807C60.1523 12.2807 60.4882 12.2099 60.7631 12.0684V9.84375H61.661V14.6161H60.7631V12.8807Z" fill="white"/>
<path d="M64.5835 9.75C65.1698 9.75 65.631 9.94385 65.967 10.3315C66.309 10.7131 66.4801 11.2485 66.4801 11.9377V14.6146H65.8387L65.628 13.8669C65.4753 14.1069 65.2706 14.3069 65.0141 14.4669C64.7575 14.6269 64.4491 14.7069 64.0887 14.7069C63.7711 14.7069 63.487 14.6423 63.2366 14.5131C62.9861 14.3838 62.7907 14.2054 62.6502 13.9777C62.5097 13.7438 62.4395 13.4823 62.4395 13.1931C62.4395 12.7438 62.6166 12.3838 62.9709 12.1131C63.3252 11.8423 63.8382 11.7069 64.5102 11.7069H65.5822C65.5577 11.3315 65.4539 11.0423 65.2706 10.8392C65.0874 10.63 64.8431 10.5254 64.5376 10.5254C64.3055 10.5254 64.1009 10.5808 63.9238 10.6915C63.7466 10.8023 63.6122 10.9469 63.5206 11.1254L62.6868 10.9869C62.809 10.6054 63.0442 10.3038 63.3923 10.0823C63.7405 9.86077 64.1375 9.75 64.5835 9.75ZM64.2811 13.9408C64.6659 13.9408 64.9774 13.8146 65.2157 13.5623C65.46 13.3038 65.5822 12.95 65.5822 12.5008V12.4454H64.5376C63.7436 12.4454 63.3465 12.6854 63.3465 13.1654C63.3465 13.3992 63.432 13.5869 63.6031 13.7285C63.7741 13.87 64.0001 13.9408 64.2811 13.9408Z" fill="white"/>
<path d="M68.8071 14.6138H67.4785V9.84153H68.3489V13.5984H68.4864L70.4013 9.84153H71.7299V14.6138H70.8594V10.8661H70.722L68.8071 14.6138ZM69.6134 9.22306C69.2163 9.22306 68.8834 9.11845 68.6147 8.90922C68.352 8.69383 68.1962 8.37383 68.1474 7.94922H68.8804C68.9109 8.14614 68.9873 8.29691 69.1094 8.40153C69.2377 8.49999 69.4057 8.54922 69.6134 8.54922C69.821 8.54922 69.986 8.49999 70.1081 8.40153C70.2364 8.29691 70.3128 8.14614 70.3372 7.94922H71.0793C71.0244 8.37383 70.8625 8.69383 70.5937 8.90922C70.3311 9.11845 70.0043 9.22306 69.6134 9.22306Z" fill="white"/>
<path d="M74.8523 14.6161H73.9545V10.6745H72.3145V9.84375H76.4924V10.6745H74.8523V14.6161Z" fill="white"/>
<path d="M81.4908 12.1962C81.4908 12.3192 81.4878 12.4146 81.4817 12.4823H77.5693C77.6182 12.9069 77.7831 13.2454 78.0641 13.4977C78.3451 13.75 78.7024 13.8762 79.1361 13.8762C79.4354 13.8762 79.7011 13.8177 79.9332 13.7008C80.1714 13.5777 80.3516 13.4177 80.4738 13.2208L81.3167 13.3592C81.1335 13.79 80.8372 14.1223 80.428 14.3562C80.0248 14.59 79.5759 14.7069 79.0811 14.7069C78.6108 14.7069 78.1893 14.6023 77.8167 14.3931C77.4441 14.1777 77.154 13.8823 76.9463 13.5069C76.7386 13.1315 76.6348 12.7069 76.6348 12.2331C76.6348 11.7531 76.7386 11.3254 76.9463 10.95C77.154 10.5746 77.4411 10.2823 77.8075 10.0731C78.174 9.85769 78.5925 9.75 79.0628 9.75C79.527 9.75 79.9424 9.85769 80.3089 10.0731C80.6815 10.2823 80.9716 10.5746 81.1793 10.95C81.387 11.3192 81.4908 11.7346 81.4908 12.1962ZM79.0628 10.5531C78.7024 10.5531 78.3909 10.6608 78.1282 10.8762C77.8717 11.0915 77.7007 11.3808 77.6151 11.7438H80.5105C80.431 11.3869 80.26 11.1008 79.9974 10.8854C79.7408 10.6638 79.4293 10.5531 79.0628 10.5531Z" fill="white"/>
<path d="M85.5219 14.6161H84.1934V9.84375H85.0638V13.6007H85.2012L87.1162 9.84375H88.4447V14.6161H87.5743V10.8684H87.4368L85.5219 14.6161Z" fill="white"/>
<path d="M92.0795 12.1777C92.3299 12.2515 92.5376 12.3869 92.7025 12.5838C92.8674 12.7746 92.9499 13.0115 92.9499 13.2946C92.9499 13.5592 92.8736 13.7992 92.7208 14.0146C92.5681 14.2238 92.3482 14.3931 92.0612 14.5223C91.7802 14.6454 91.4534 14.7069 91.0808 14.7069C90.5799 14.7069 90.1493 14.59 89.7889 14.3562C89.4285 14.1162 89.1903 13.7962 89.0742 13.3962L89.908 13.2577C90.1096 13.7008 90.4974 13.9223 91.0716 13.9223C91.3892 13.9223 91.6305 13.8638 91.7954 13.7469C91.9665 13.6238 92.052 13.4546 92.052 13.2392C92.052 13.0485 91.9726 12.8946 91.8138 12.7777C91.6611 12.6608 91.4137 12.6023 91.0716 12.6023H90.4486V11.8085H91.0716C91.3648 11.8085 91.5878 11.7531 91.7405 11.6423C91.8993 11.5315 91.9787 11.3838 91.9787 11.1992C91.9787 11.0023 91.8932 10.8423 91.7221 10.7192C91.5572 10.5962 91.3526 10.5346 91.1083 10.5346C90.87 10.5346 90.6563 10.5931 90.4669 10.71C90.2775 10.8269 90.134 10.9869 90.0363 11.19L89.2025 11.0423C89.343 10.63 89.5843 10.3131 89.9263 10.0915C90.2745 9.86385 90.6776 9.75 91.1358 9.75C91.4656 9.75 91.7619 9.80846 92.0245 9.92538C92.2933 10.0423 92.501 10.2054 92.6476 10.4146C92.8003 10.6238 92.8766 10.8577 92.8766 11.1162C92.8766 11.3808 92.8033 11.6054 92.6567 11.79C92.5101 11.9746 92.3177 12.1038 92.0795 12.1777Z" fill="white"/>
</g>
<defs>
<clipPath id="clip0_643_10487">
<rect width="134" height="40" fill="white"/>
</clipPath>
</defs>
</svg>
